<svg width="350" height="78" viewBox="0 0 350 78" fill="none" xmlns="http://www.w3.org/2000/svg">
<g clip-path="url(#clip0_2_211)">
<rect width="350" height="78" fill="white"/>
<path d="M53.5423 53V27.8H58.5343V33.176L57.6223 33.752C57.8783 32.92 58.2783 32.12 58.8223 31.352C59.3983 30.584 60.0863 29.912 60.8863 29.336C61.7183 28.728 62.5983 28.248 63.5263 27.896C64.4863 27.544 65.4623 27.368 66.4543 27.368C67.8943 27.368 69.1583 27.608 70.2463 28.088C71.3343 28.568 72.2303 29.288 72.9343 30.248C73.6383 31.208 74.1503 32.408 74.4703 33.848L73.7023 33.656L74.0383 32.84C74.3903 32.104 74.8703 31.416 75.4783 30.776C76.1183 30.104 76.8383 29.512 77.6383 29C78.4383 28.488 79.2863 28.088 80.1823 27.8C81.0783 27.512 81.9583 27.368 82.8223 27.368C84.7103 27.368 86.2623 27.752 87.4783 28.52C88.7263 29.288 89.6543 30.456 90.2623 32.024C90.9023 33.592 91.2223 35.544 91.2223 37.88V53H86.2303V38.168C86.2303 36.728 86.0383 35.56 85.6543 34.664C85.3023 33.736 84.7583 33.048 84.0223 32.6C83.2863 32.152 82.3423 31.928 81.1903 31.928C80.2943 31.928 79.4463 32.088 78.6463 32.408C77.8783 32.696 77.2063 33.112 76.6303 33.656C76.0543 34.2 75.6063 34.84 75.2863 35.576C74.9663 36.28 74.8063 37.064 74.8063 37.928V53H69.8143V38.072C69.8143 36.76 69.6223 35.656 69.2383 34.76C68.8543 33.832 68.2943 33.128 67.5583 32.648C66.8223 32.168 65.9263 31.928 64.8703 31.928C63.9743 31.928 63.1423 32.088 62.3743 32.408C61.6063 32.696 60.9343 33.112 60.3583 33.656C59.7823 34.168 59.3343 34.792 59.0143 35.528C58.6943 36.232 58.5343 37 58.5343 37.832V53H53.5423ZM101.831 64.04L106.919 52.28L106.967 56.216L94.3911 27.8H100.151L108.023 46.328C108.183 46.648 108.375 47.144 108.599 47.816C108.823 48.456 109.015 49.096 109.175 49.736L107.927 50.024C108.183 49.352 108.423 48.68 108.647 48.008C108.903 47.336 109.143 46.664 109.367 45.992L115.943 27.8H121.799L111.431 53L107.159 64.04H101.831Z" fill="#DD6B20"/>
<path d="M135.733 53.48C133.397 53.48 131.301 52.904 129.445 51.752C127.621 50.6 126.165 49.032 125.077 47.048C124.021 45.064 123.493 42.84 123.493 40.376C123.493 37.912 124.021 35.688 125.077 33.704C126.165 31.72 127.621 30.152 129.445 29C131.301 27.848 133.397 27.272 135.733 27.272C137.973 27.272 140.005 27.736 141.829 28.664C143.685 29.56 145.093 30.792 146.053 32.36L143.317 35.72C142.805 34.984 142.149 34.312 141.349 33.704C140.549 33.096 139.701 32.616 138.805 32.264C137.909 31.912 137.045 31.736 136.213 31.736C134.677 31.736 133.301 32.12 132.085 32.888C130.901 33.624 129.957 34.648 129.253 35.96C128.549 37.272 128.197 38.744 128.197 40.376C128.197 42.008 128.565 43.48 129.301 44.792C130.037 46.072 131.013 47.096 132.229 47.864C133.445 48.632 134.789 49.016 136.261 49.016C137.125 49.016 137.957 48.872 138.757 48.584C139.589 48.296 140.389 47.864 141.157 47.288C141.925 46.712 142.645 46.008 143.317 45.176L146.053 48.536C145.029 49.976 143.557 51.16 141.637 52.088C139.749 53.016 137.781 53.48 135.733 53.48ZM162.044 53.48C159.58 53.48 157.372 52.92 155.42 51.8C153.5 50.648 151.98 49.096 150.86 47.144C149.74 45.16 149.18 42.904 149.18 40.376C149.18 37.848 149.74 35.608 150.86 33.656C151.98 31.672 153.5 30.12 155.42 29C157.372 27.848 159.58 27.272 162.044 27.272C164.476 27.272 166.652 27.848 168.572 29C170.524 30.12 172.06 31.672 173.18 33.656C174.3 35.608 174.86 37.848 174.86 40.376C174.86 42.904 174.3 45.16 173.18 47.144C172.06 49.096 170.524 50.648 168.572 51.8C166.652 52.92 164.476 53.48 162.044 53.48ZM162.044 48.968C163.548 48.968 164.892 48.6 166.076 47.864C167.26 47.096 168.188 46.072 168.86 44.792C169.532 43.48 169.852 42.008 169.82 40.376C169.852 38.712 169.532 37.24 168.86 35.96C168.188 34.648 167.26 33.624 166.076 32.888C164.892 32.152 163.548 31.784 162.044 31.784C160.54 31.784 159.18 32.168 157.964 32.936C156.78 33.672 155.852 34.696 155.18 36.008C154.508 37.288 154.188 38.744 154.22 40.376C154.188 42.008 154.508 43.48 155.18 44.792C155.852 46.072 156.78 47.096 157.964 47.864C159.18 48.6 160.54 48.968 162.044 48.968ZM187.801 53L177.145 27.8H182.473L190.153 46.664L189.241 47.096L197.449 27.8H202.537L191.353 53H187.801ZM218.117 53.48C215.525 53.48 213.221 52.936 211.205 51.848C209.221 50.728 207.653 49.208 206.501 47.288C205.381 45.368 204.821 43.16 204.821 40.664C204.821 38.68 205.141 36.872 205.781 35.24C206.421 33.608 207.301 32.2 208.421 31.016C209.573 29.8 210.933 28.872 212.501 28.232C214.101 27.56 215.829 27.224 217.685 27.224C219.317 27.224 220.837 27.544 222.245 28.184C223.653 28.792 224.869 29.64 225.893 30.728C226.949 31.816 227.749 33.112 228.293 34.616C228.869 36.088 229.141 37.704 229.109 39.464L229.061 41.576H208.469L207.365 37.64H224.789L224.069 38.456V37.304C223.973 36.248 223.621 35.304 223.013 34.472C222.405 33.64 221.637 32.984 220.709 32.504C219.781 32.024 218.773 31.784 217.685 31.784C215.957 31.784 214.501 32.12 213.317 32.792C212.133 33.432 211.237 34.392 210.629 35.672C210.021 36.92 209.717 38.472 209.717 40.328C209.717 42.088 210.085 43.624 210.821 44.936C211.557 46.216 212.597 47.208 213.941 47.912C215.285 48.616 216.837 48.968 218.597 48.968C219.845 48.968 220.997 48.76 222.053 48.344C223.141 47.928 224.309 47.176 225.557 46.088L228.053 49.592C227.285 50.36 226.341 51.032 225.221 51.608C224.133 52.184 222.965 52.648 221.717 53C220.501 53.32 219.301 53.48 218.117 53.48ZM234.482 53V27.8H239.474V35.72L238.994 33.8C239.346 32.584 239.938 31.48 240.77 30.488C241.634 29.496 242.61 28.712 243.698 28.136C244.818 27.56 245.97 27.272 247.154 27.272C247.698 27.272 248.21 27.32 248.69 27.416C249.202 27.512 249.602 27.624 249.89 27.752L248.594 33.128C248.21 32.968 247.778 32.84 247.298 32.744C246.85 32.616 246.402 32.552 245.954 32.552C245.09 32.552 244.258 32.728 243.458 33.08C242.69 33.4 242.002 33.864 241.394 34.472C240.818 35.048 240.354 35.736 240.002 36.536C239.65 37.304 239.474 38.152 239.474 39.08V53H234.482ZM262.459 53.48C260.379 53.48 258.475 52.904 256.747 51.752C255.051 50.6 253.691 49.032 252.667 47.048C251.643 45.064 251.131 42.824 251.131 40.328C251.131 37.8 251.643 35.56 252.667 33.608C253.723 31.624 255.131 30.072 256.891 28.952C258.683 27.832 260.683 27.272 262.891 27.272C264.203 27.272 265.403 27.464 266.491 27.848C267.579 28.232 268.523 28.776 269.323 29.48C270.155 30.152 270.827 30.936 271.339 31.832C271.883 32.728 272.219 33.688 272.347 34.712L271.243 34.328V27.8H276.235V53H271.243V47L272.395 46.664C272.203 47.528 271.803 48.376 271.195 49.208C270.619 50.008 269.867 50.728 268.939 51.368C268.043 52.008 267.035 52.52 265.915 52.904C264.827 53.288 263.675 53.48 262.459 53.48ZM263.755 48.92C265.259 48.92 266.587 48.552 267.739 47.816C268.891 47.08 269.787 46.072 270.427 44.792C271.099 43.48 271.435 41.992 271.435 40.328C271.435 38.696 271.099 37.24 270.427 35.96C269.787 34.68 268.891 33.672 267.739 32.936C266.587 32.2 265.259 31.832 263.755 31.832C262.283 31.832 260.971 32.2 259.819 32.936C258.699 33.672 257.803 34.68 257.131 35.96C256.491 37.24 256.171 38.696 256.171 40.328C256.171 41.992 256.491 43.48 257.131 44.792C257.803 46.072 258.699 47.08 259.819 47.816C260.971 48.552 262.283 48.92 263.755 48.92ZM294.418 64.04C292.626 64.04 290.834 63.752 289.042 63.176C287.282 62.632 285.858 61.912 284.77 61.016L286.594 57.176C287.234 57.656 287.986 58.072 288.85 58.424C289.714 58.808 290.626 59.096 291.586 59.288C292.546 59.512 293.49 59.624 294.418 59.624C296.178 59.624 297.65 59.336 298.834 58.76C300.018 58.184 300.914 57.336 301.522 56.216C302.13 55.096 302.434 53.704 302.434 52.04V47.192L302.962 47.528C302.802 48.52 302.274 49.48 301.378 50.408C300.514 51.304 299.426 52.04 298.114 52.616C296.802 53.192 295.458 53.48 294.082 53.48C291.682 53.48 289.538 52.92 287.65 51.8C285.794 50.648 284.322 49.096 283.234 47.144C282.146 45.16 281.602 42.904 281.602 40.376C281.602 37.848 282.13 35.608 283.186 33.656C284.274 31.672 285.746 30.12 287.602 29C289.49 27.848 291.602 27.272 293.938 27.272C294.898 27.272 295.826 27.4 296.722 27.656C297.618 27.88 298.45 28.216 299.218 28.664C299.986 29.08 300.674 29.544 301.282 30.056C301.89 30.568 302.386 31.112 302.77 31.688C303.154 32.264 303.394 32.808 303.49 33.32L302.434 33.704V27.8H307.378V51.464C307.378 53.48 307.074 55.256 306.466 56.792C305.89 58.36 305.042 59.672 303.922 60.728C302.802 61.816 301.442 62.632 299.842 63.176C298.242 63.752 296.434 64.04 294.418 64.04ZM294.61 48.92C296.178 48.92 297.57 48.552 298.786 47.816C300.002 47.08 300.946 46.072 301.618 44.792C302.29 43.512 302.626 42.04 302.626 40.376C302.626 38.712 302.274 37.24 301.57 35.96C300.898 34.648 299.954 33.624 298.738 32.888C297.554 32.152 296.178 31.784 294.61 31.784C293.074 31.784 291.698 32.168 290.482 32.936C289.298 33.672 288.354 34.696 287.65 36.008C286.978 37.288 286.642 38.744 286.642 40.376C286.642 42.008 286.978 43.48 287.65 44.792C288.354 46.072 289.298 47.08 290.482 47.816C291.698 48.552 293.074 48.92 294.61 48.92ZM326.07 53.48C323.478 53.48 321.174 52.936 319.158 51.848C317.174 50.728 315.606 49.208 314.454 47.288C313.334 45.368 312.774 43.16 312.774 40.664C312.774 38.68 313.094 36.872 313.734 35.24C314.374 33.608 315.254 32.2 316.374 31.016C317.526 29.8 318.886 28.872 320.454 28.232C322.054 27.56 323.782 27.224 325.638 27.224C327.27 27.224 328.79 27.544 330.198 28.184C331.606 28.792 332.822 29.64 333.846 30.728C334.902 31.816 335.702 33.112 336.246 34.616C336.822 36.088 337.094 37.704 337.062 39.464L337.014 41.576H316.422L315.318 37.64H332.742L332.022 38.456V37.304C331.926 36.248 331.574 35.304 330.966 34.472C330.358 33.64 329.59 32.984 328.662 32.504C327.734 32.024 326.726 31.784 325.638 31.784C323.91 31.784 322.454 32.12 321.27 32.792C320.086 33.432 319.19 34.392 318.582 35.672C317.974 36.92 317.67 38.472 317.67 40.328C317.67 42.088 318.038 43.624 318.774 44.936C319.51 46.216 320.55 47.208 321.894 47.912C323.238 48.616 324.79 48.968 326.55 48.968C327.798 48.968 328.95 48.76 330.006 48.344C331.094 47.928 332.262 47.176 333.51 46.088L336.006 49.592C335.238 50.36 334.294 51.032 333.174 51.608C332.086 52.184 330.918 52.648 329.67 53C328.454 53.32 327.254 53.48 326.07 53.48Z" fill="black"/>
<g clip-path="url(#clip1_2_211)">
<path d="M0.248947 52.8782C3.05866 38.4162 9.06202 25.0566 17.6664 14.1182C17.8194 13.9246 18.0053 13.7701 18.2123 13.6643C18.4193 13.5586 18.6429 13.504 18.8689 13.504C19.095 13.504 19.3186 13.5586 19.5256 13.6643C19.7326 13.7701 19.9185 13.9246 20.0715 14.1182C20.4104 14.5457 20.6922 14.9067 20.9147 15.1989C29.0744 25.9383 34.7748 38.8975 37.4889 52.8782C33.1177 53.9494 28.6281 54.6524 24.0466 54.954L19.7816 64.8767C19.6967 65.0737 19.5664 65.2394 19.4052 65.3551C19.244 65.4709 19.0584 65.5322 18.8689 65.5322C18.6795 65.5322 18.4938 65.4709 18.3327 65.3551C18.1715 65.2394 18.0412 65.0737 17.9563 64.8767L13.6913 54.954C9.17196 54.6569 4.67839 53.963 0.248947 52.8782V52.8782ZM18.8689 45.625C20.4934 45.625 22.0513 44.8743 23.2 43.5381C24.3486 42.2019 24.9939 40.3897 24.9939 38.5C24.9939 36.6103 24.3486 34.7981 23.2 33.4619C22.0513 32.1257 20.4934 31.375 18.8689 31.375C17.2445 31.375 15.6866 32.1257 14.5379 33.4619C13.3893 34.7981 12.7439 36.6103 12.7439 38.5C12.7439 40.3897 13.3893 42.2019 14.5379 43.5381C15.6866 44.8743 17.2445 45.625 18.8689 45.625V45.625Z" fill="black"/>
</g>
</g>
<defs>
<clipPath id="clip0_2_211">
<rect width="350" height="78" fill="white"/>
</clipPath>
<clipPath id="clip1_2_211">
<rect width="49" height="57" fill="white" transform="translate(-5.63106 10)"/>
</clipPath>
</defs>
</svg>
